PathFileType	4	(X/Y/Z)	C:\Users\Willi\Documents\UniDataLokal\DATA_Hans_PhD\TD05\3DGAIT_C_W31\marker_experimental.trc
DataRate	CameraRate	NumFrames	NumMarkers	Units	OrigDataRate	OrigDataStartFrame	OrigNumFrames
100.000000	100.000000	4	85	mm	100.000000	50	200
Frame#	Time	RBAK			C7			CLAV			T10			STRN			RASI			RPSI			LPSI			LASI			LPELV			RPELV			RTHI1			RTHI2			RTHI3			RTHI			RKNE			RPAT			RLKNEL			RLKNEM			RLPAT			RTIB1			RTIB2			RTIB3			RTIB			RANK			RHEEL			RTOE			RM5			LTHI1			LTHI2			LTHI3			LTHI			LKNE			LPAT			LLKNE			LLKNEM			LLPAT			LTIB1			LTIB2			LTIB3			LTIB			LANK			LHEEL			LTOE			LM5			*45			*46			*47			*48			*49			*50			*51			*52			*53			*54			*55			*56			*57			*58			*59			*60			*61			*62			*63			*64			*65			*66			*67			*68			*69			*70			*71			*72			*73			*74			*75			*76			*77			*78			*79			*80			*81			*82			*83			*84			
		X1	Y1	Z1	X2	Y2	Z2	X3	Y3	Z3	X4	Y4	Z4	X5	Y5	Z5	X6	Y6	Z6	X7	Y7	Z7	X8	Y8	Z8	X9	Y9	Z9	X10	Y10	Z10	X11	Y11	Z11	X12	Y12	Z12	X13	Y13	Z13	X14	Y14	Z14	X15	Y15	Z15	X16	Y16	Z16	X17	Y17	Z17	X18	Y18	Z18	X19	Y19	Z19	X20	Y20	Z20	X21	Y21	Z21	X22	Y22	Z22	X23	Y23	Z23	X24	Y24	Z24	X25	Y25	Z25	X26	Y26	Z26	X27	Y27	Z27	X28	Y28	Z28	X29	Y29	Z29	X30	Y30	Z30	X31	Y31	Z31	X32	Y32	Z32	X33	Y33	Z33	X34	Y34	Z34	X35	Y35	Z35	X36	Y36	Z36	X37	Y37	Z37	X38	Y38	Z38	X39	Y39	Z39	X40	Y40	Z40	X41	Y41	Z41	X42	Y42	Z42	X43	Y43	Z43	X44	Y44	Z44	X45	Y45	Z45	X46	Y46	Z46	X47	Y47	Z47	X48	Y48	Z48	X49	Y49	Z49	X50	Y50	Z50	X51	Y51	Z51	X52	Y52	Z52	X53	Y53	Z53	X54	Y54	Z54	X55	Y55	Z55	X56	Y56	Z56	X57	Y57	Z57	X58	Y58	Z58	X59	Y59	Z59	X60	Y60	Z60	X61	Y61	Z61	X62	Y62	Z62	X63	Y63	Z63	X64	Y64	Z64	X65	Y65	Z65	X66	Y66	Z66	X67	Y67	Z67	X68	Y68	Z68	X69	Y69	Z69	X70	Y70	Z70	X71	Y71	Z71	X72	Y72	Z72	X73	Y73	Z73	X74	Y74	Z74	X75	Y75	Z75	X76	Y76	Z76	X77	Y77	Z77	X78	Y78	Z78	X79	Y79	Z79	X80	Y80	Z80	X81	Y81	Z81	X82	Y82	Z82	X83	Y83	Z83	X84	Y84	Z84	X85	Y85	Z85	

51	0.5	-354.6429138183594	1295.294067382812	-57.06166839599616	-330.8090515136719	1379.471923828125	-222.5621795654297	-235.6166229248047	1282.121337890625	-237.4917297363282	-400.4859313964844	1060.696899414062	-212.0479278564454	-190.9752960205078	1051.445068359375	-241.9998474121094	-203.0905914306641	892.2723388671875	-107.2202911376954	-391.4598083496094	921.4447631835938	-151.1221466064454	-405.040771484375	907.78955078125	-262.7093811035157	-228.2763671875	898.9122314453125	-346.9019775390626	-316.7620544433594	931.9375	-384.2059326171876	-282.9845581054688	946.6370239257812	-58.49642944335942	-265.7393493652344	596.0985107421875	-59.64702606201177	-231.2040405273438	545.7205810546875	-101.440544128418	-277.5871276855469	497.8031311035156	-86.96788024902349	-317.2607421875001	516.0907592773438	-40.42706298828131	-331.0016479492188	435.5758972167969	-88.83559417724615	-268.2707214355469	425.5718383789062	-147.4027099609376	-345.3662109375	392.8941650390625	-93.00258636474615	-347.7716369628906	398.5997314453125	-209.6168212890626	-292.8986511230469	369.4390258789062	-137.865463256836	-310.13671875	248.8419952392578	-130.7032928466797	-350.1599426269531	201.1599426269531	-105.9460601806641	-316.6668090820312	159.0247650146484	-147.860336303711	-403.6604309082031	129.7740325927734	-97.92235565185554	-377.2266540527344	67.2027893066406	-145.3654022216797	-401.8630981445312	30.6233043670654	-205.3973693847657	-239.4476318359375	29.3557720184326	-106.3111724853516	-290.0264587402344	2.997515201568586	-77.06467437744146	-168.4152679443359	634.6140747070312	-404.2118225097657	-118.486328125	602.3275756835938	-379.45849609375	-140.2202758789062	541.2453002929688	-398.2060546875	-191.6489868164062	530.669677734375	-430.7859497070313	-160.2987823486328	468.6096496582031	-389.0839843750001	-75.62248229980464	461.8276062011719	-353.4153747558594	-170.4591064453125	422.9967651367188	-383.1010742187501	-133.5452728271484	425.5035400390625	-271.1930541992188	-115.0853881835937	394.2757263183594	-354.7445373535156	-156.6814727783203	304.7385864257812	-351.5257873535157	-222.944091796875	276.4672546386719	-361.5638732910157	-195.3044738769531	212.7717437744141	-333.1375122070313	-303.7644348144531	217.4248504638672	-335.6803283691407	-278.3235168457031	110.2294998168945	-293.9034423828126	-286.8265991210937	75.82102966308592	-228.4939117431641	-179.8046417236328	40.01281738281249	-370.3598022460938	-227.5568847656249	37.63100814819335	-376.6988830566407	nan	nan	nan	nan	nan	nan	nan	nan	nan	nan	nan	nan	nan	nan	nan	nan	nan	nan	nan	nan	nan	nan	nan	nan	nan	nan	nan	nan	nan	nan	nan	nan	nan	nan	nan	nan	nan	nan	nan	nan	nan	nan	nan	nan	nan	nan	nan	nan	nan	nan	nan	nan	nan	nan	nan	nan	nan	nan	nan	nan	nan	nan	nan	nan	nan	nan	nan	nan	nan	nan	nan	nan	nan	nan	nan	nan	nan	nan	nan	nan	nan	nan	nan	nan	nan	nan	nan	nan	nan	nan	nan	nan	nan	nan	nan	nan	nan	nan	nan	nan	nan	nan	nan	nan	nan	nan	nan	nan	nan	nan	nan	nan	nan	nan	nan	nan	nan	nan	nan	nan	
52	0.51	-345.0587463378907	1295.525024414062	-56.97369766235358	-321.62646484375	1379.17626953125	-222.7357177734376	-226.6352996826172	1281.842895507812	-237.7545166015625	-391.7481079101562	1060.568969726562	-212.0191650390626	-182.2023468017578	1051.110473632812	-241.717041015625	-195.3447723388672	891.5787963867188	-106.5297164916993	-383.3007812500001	921.4349975585938	-151.8571014404297	-396.0699462890625	907.9126586914062	-263.5889282226563	-218.61865234375	898.882568359375	-346.3892517089844	-307.0652770996094	932.1729125976562	-384.2978210449219	-275.2344055175782	946.1347045898438	-58.44287109375005	-259.9024963378907	595.612548828125	-59.80373382568364	-225.2271881103516	545.0469970703125	-101.2394943237305	-271.9042358398438	497.3881530761719	-87.32920074462896	-312.0357971191407	515.8299560546875	-41.1571769714356	-325.5791015625	435.3738098144531	-89.80455780029303	-262.4103393554688	424.9353942871094	-147.5795898437501	-340.2988586425781	392.7882385253906	-94.15454101562506	-341.7616882324218	398.435791015625	-210.6425933837891	-287.8216857910156	368.7239379882812	-138.5662994384766	-306.7651672363281	248.1347351074218	-131.4728546142579	-347.8586120605469	200.8648834228515	-106.5693130493165	-314.7402954101562	158.4826049804687	-148.4971923828126	-402.4493408203125	130.7025604248047	-98.86781311035163	-376.6825866699219	67.55734252929685	-145.8355712890626	-401.7161254882812	30.80694770812986	-205.6986236572266	-239.2860717773437	29.34636306762694	-106.4571685791016	-290.0685119628906	3.137413501739484	-77.14974975585943	-157.8857727050781	634.9432983398438	-402.7997131347657	-108.3642578125	602.7640380859375	-377.1531372070312	-129.599868774414	541.653076171875	-396.569580078125	-180.5569458007812	530.8998413085938	-429.9410400390626	-149.7476654052734	468.6768493652344	-387.5458679199219	-65.37055969238277	463.4201049804688	-351.3470153808594	-158.8029327392578	422.5123596191406	-381.6981811523438	-122.0403213500976	425.5632019042969	-269.8319396972656	-102.0235900878906	396.0037536621094	-353.8583374023438	-138.3036956787109	304.8941345214844	-351.906005859375	-202.5435333251953	272.7418212890625	-361.9170227050782	-170.5124206542968	210.6089935302734	-334.6954040527344	-279.3821105957031	208.493896484375	-336.0237121582032	-246.665054321289	102.0280380249023	-296.2521057128907	-252.5594940185547	66.30995178222655	-231.0801696777344	-144.0940246582031	39.31014251708984	-373.9422302246094	-191.6646423339843	33.85736083984374	-380.2229003906251	nan	nan	nan	nan	nan	nan	nan	nan	nan	nan	nan	nan	nan	nan	nan	nan	nan	nan	nan	nan	nan	nan	nan	nan	nan	nan	nan	nan	nan	nan	nan	nan	nan	nan	nan	nan	nan	nan	nan	nan	nan	nan	nan	nan	nan	nan	nan	nan	nan	nan	nan	nan	nan	nan	nan	nan	nan	nan	nan	nan	nan	nan	nan	nan	nan	nan	nan	nan	nan	nan	nan	nan	nan	nan	nan	nan	nan	nan	nan	nan	nan	nan	nan	nan	nan	nan	nan	nan	nan	nan	nan	nan	nan	nan	nan	nan	nan	nan	nan	nan	nan	nan	nan	nan	nan	nan	nan	nan	nan	nan	nan	nan	nan	nan	nan	nan	nan	nan	nan	nan	
53	0.52	-335.4562377929688	1295.61279296875	-56.96364212036139	-312.4239501953125	1378.764404296875	-222.9784088134766	-217.5779113769532	1281.457763671875	-238.0556335449219	-382.9196472167969	1060.310791015625	-212.1446685791016	-173.3067321777344	1050.631713867188	-241.4862365722657	-187.5718383789063	890.80419921875	-105.9454650878907	-375.0740661621094	921.3583374023438	-152.7239837646485	-386.9610900878906	907.9332885742188	-264.5995788574219	-208.8011932373047	898.6572875976562	-345.9426574707032	-297.140625	932.2320556640625	-384.5122375488282	-267.4405822753907	945.6211547851562	-58.49966812133794	-253.9784088134766	595.0465698242188	-60.03622055053716	-219.1526794433594	544.3140869140625	-101.1293563842774	-266.1055603027344	496.8992309570312	-87.76571655273442	-306.6837768554688	515.4862670898438	-41.96493148803717	-320.0299987792969	435.0865173339844	-90.83944702148443	-256.4770202636719	424.1998596191406	-147.8099975585938	-335.1044921875	392.6056823730469	-95.37043762207037	-335.6336669921874	398.1775817871094	-211.7353210449219	-282.6278076171875	367.9231262207031	-139.333969116211	-303.3124084472656	247.3722534179687	-132.2964019775391	-345.4715881347656	200.5591583251953	-107.2489242553712	-312.7501525878906	157.9042816162109	-149.1802520751954	-401.1462707519531	131.6438903808593	-99.81310272216804	-376.1037902832031	67.91876983642575	-146.3255004882813	-401.5546874999999	31.0083141326904	-206.0186614990235	-239.09912109375	29.33628654479979	-106.6070861816407	-290.0992126464844	3.311108350753766	-77.25062561035162	-147.7457733154296	634.78515625	-401.3724060058594	-98.73705291748044	602.6060791015625	-374.8289794921875	-119.5839309692382	541.5185546875	-394.8921813964844	-170.2248840332031	530.6538696289062	-428.9564514160157	-139.8605499267578	468.2942504882812	-385.9671630859375	-55.7994232177734	464.4697570800781	-349.1469421386719	-147.7171173095703	421.7023315429688	-380.3128051757812	-111.1605529785156	425.1555480957031	-268.3715515136719	-89.59825134277339	397.4317321777344	-352.9720458984375	-120.4477539062499	305.1478576660156	-352.41845703125	-182.4233093261718	269.2320861816406	-362.5246887207032	-146.1021728515624	208.9119262695312	-336.5583190917969	-254.8265838623046	199.94482421875	-336.8393554687501	-214.8799743652343	94.7113571166992	-299.1497802734376	-218.0002899169921	57.92943572998045	-234.3011474609375	-108.6588592529296	39.69195175170898	-378.03466796875	-155.8538970947265	31.19447898864745	-384.3037719726563	nan	nan	nan	nan	nan	nan	nan	nan	nan	nan	nan	nan	nan	nan	nan	nan	nan	nan	nan	nan	nan	nan	nan	nan	nan	nan	nan	nan	nan	nan	nan	nan	nan	nan	nan	nan	nan	nan	nan	nan	nan	nan	nan	nan	nan	nan	nan	nan	nan	nan	nan	nan	nan	nan	nan	nan	nan	nan	nan	nan	nan	nan	nan	nan	nan	nan	nan	nan	nan	nan	nan	nan	nan	nan	nan	nan	nan	nan	nan	nan	nan	nan	nan	nan	nan	nan	nan	nan	nan	nan	nan	nan	nan	nan	nan	nan	nan	nan	nan	nan	nan	nan	nan	nan	nan	nan	nan	nan	nan	nan	nan	nan	nan	nan	nan	nan	nan	nan	nan	nan	
54	0.53	-325.8409423828126	1295.548217773438	-57.03619766235357	-303.2011108398438	1378.233032226562	-223.2959747314454	-208.4434051513672	1280.95654296875	-238.4001617431641	-373.9994506835938	1059.916870117188	-212.4277038574219	-164.2904663085938	1050.005004882812	-241.3103942871094	-179.7659912109375	889.9459838867188	-105.4591598510742	-366.7742004394532	921.1903076171875	-153.7235260009766	-377.7098388671875	907.8330078125	-265.7393798828126	-198.8191070556641	898.23974609375	-345.5568237304688	-286.9758605957031	932.1109008789062	-384.8466796875001	-259.6196289062501	945.0787353515625	-58.65931701660161	-247.9489440917969	594.3951416015625	-60.34682464599614	-212.9618530273438	543.5140380859375	-101.10791015625	-260.1769714355469	496.3301391601562	-88.27756500244145	-301.1870727539063	515.0526123046875	-42.85432815551763	-314.3381958007812	434.7080688476562	-91.93988037109381	-250.4496612548828	423.3603515625	-148.1023712158204	-329.7652893066406	392.3407592773438	-96.64582824707037	-329.3771667480468	397.8230590820312	-212.8955078125001	-277.3027954101562	367.0362243652344	-140.1752624511719	-299.7734069824219	246.5509948730468	-133.1775817871094	-342.9866638183594	200.2585144042968	-108.0041427612305	-310.69091796875	157.2830657958984	-149.9166870117188	-399.7400512695312	132.594497680664	-100.7585449218751	-375.4838256835938	68.28953552246091	-146.8430938720704	-401.3710632324218	31.22837066650388	-206.3653717041016	-238.8948822021484	29.32507896423338	-106.7569808959961	-290.1169128417969	3.5246534347534	-77.37158203125006	-137.9765319824218	634.1531372070312	-399.9544067382812	-89.584358215332	601.8728637695312	-372.5131530761719	-110.1422271728515	540.858154296875	-393.196533203125	-160.6322479248046	529.9443359375	-427.8619689941407	-130.585464477539	467.4808349609375	-384.37744140625	-46.85464859008786	464.9994201660156	-346.8371887207031	-137.1580047607422	420.5947570800781	-378.9676208496094	-100.9129333496094	424.3172912597656	-266.8319396972656	-77.78137207031246	398.5605773925781	-352.0853881835938	-103.160774230957	305.505859375	-353.0430297851562	-162.651138305664	266.003173828125	-363.3932495117188	-122.2052536010742	207.7323455810547	-338.6893920898438	-230.2218780517578	191.9108581542969	-338.1610717773438	-183.2041320800781	88.4119186401367	-302.5766906738282	-183.4269409179687	50.81479644775389	-238.1422729492188	-73.72062683105462	41.24866485595702	-382.5997009277344	-120.3144607543945	29.73162651062011	-388.8868408203125	nan	nan	nan	nan	nan	nan	nan	nan	nan	nan	nan	nan	nan	nan	nan	nan	nan	nan	nan	nan	nan	nan	nan	nan	nan	nan	nan	nan	nan	nan	nan	nan	nan	nan	nan	nan	nan	nan	nan	nan	nan	nan	nan	nan	nan	nan	nan	nan	nan	nan	nan	nan	nan	nan	nan	nan	nan	nan	nan	nan	nan	nan	nan	nan	nan	nan	nan	nan	nan	nan	nan	nan	nan	nan	nan	nan	nan	nan	nan	nan	nan	nan	nan	nan	nan	nan	nan	nan	nan	nan	nan	nan	nan	nan	nan	nan	nan	nan	nan	nan	nan	nan	nan	nan	nan	nan	nan	nan	nan	nan	nan	nan	nan	nan	nan	nan	nan	nan	nan	nan	
